<svg width="30" height="30" viewBox="0 0 30 30" fill="none" xmlns="http://www.w3.org/2000/svg">
<path d="M21.0061 7.66463C21.0061 11.1883 18.0974 14.0793 14.4665 14.0793C10.8356 14.0793 7.92682 11.1883 7.92682 7.66463C7.92682 4.14092 10.8356 1.25 14.4665 1.25C18.0974 1.25 21.0061 4.14092 21.0061 7.66463Z" fill="white" stroke="black" stroke-width="2.5"/>
<mask id="path-2-inside-1_1_7" fill="white">
<path fill-rule="evenodd" clip-rule="evenodd" d="M30 30H0C0.63737 22.3981 7.10966 16.4242 15 16.4242C22.8903 16.4242 29.3626 22.3981 30 30Z"/>
</mask>
<path fill-rule="evenodd" clip-rule="evenodd" d="M30 30H0C0.63737 22.3981 7.10966 16.4242 15 16.4242C22.8903 16.4242 29.3626 22.3981 30 30Z" fill="white"/>
<path d="M0 30L-2.49126 29.7911L-2.71838 32.5H0V30ZM30 30V32.5H32.7184L32.4913 29.7911L30 30ZM0 32.5H30V27.5H0V32.5ZM2.49126 30.2089C3.01815 23.9247 8.38665 18.9242 15 18.9242V13.9242C5.83267 13.9242 -1.74341 20.8715 -2.49126 29.7911L2.49126 30.2089ZM15 18.9242C21.6133 18.9242 26.9819 23.9247 27.5087 30.2089L32.4913 29.7911C31.7434 20.8715 24.1673 13.9242 15 13.9242V18.9242Z" fill="black" mask="url(#path-2-inside-1_1_7)"/>
</svg>
