<svg width="19" height="19" viewBox="0 0 19 19" fill="none" xmlns="http://www.w3.org/2000/svg">
<path d="M18.377 16.9852L14.109 12.7172C14.0281 12.6364 13.9227 12.5942 13.8102 12.5942H13.3461C14.4535 11.311 15.125 9.64106 15.125 7.81294C15.125 3.77349 11.852 0.500439 7.8125 0.500439C3.77305 0.500439 0.5 3.77349 0.5 7.81294C0.5 11.8524 3.77305 15.1254 7.8125 15.1254C9.64062 15.1254 11.3105 14.454 12.5938 13.3465V13.8106C12.5938 13.9231 12.6395 14.0286 12.7168 14.1094L16.9848 18.3774C17.15 18.5426 17.4172 18.5426 17.5824 18.3774L18.377 17.5829C18.5422 17.4176 18.5422 17.1504 18.377 16.9852ZM7.8125 13.4379C4.70469 13.4379 2.1875 10.9208 2.1875 7.81294C2.1875 4.70513 4.70469 2.18794 7.8125 2.18794C10.9203 2.18794 13.4375 4.70513 13.4375 7.81294C13.4375 10.9208 10.9203 13.4379 7.8125 13.4379Z" fill="#484848" stroke="#484848" stroke-width="0.0351562"/>
</svg>
