<svg width="21" height="20" viewBox="0 0 21 20" fill="none" xmlns="http://www.w3.org/2000/svg">
<path d="M18.8368 7.06596L13.7639 6.32638L11.4965 1.72915C11.0903 0.909708 9.9132 0.899291 9.50348 1.72915L7.23611 6.32638L2.1632 7.06596C1.25348 7.1979 0.888892 8.31943 1.54861 8.96179L5.21875 12.5382L4.3507 17.5903C4.19445 18.5035 5.15625 19.1875 5.96181 18.7604L10.5 16.375L15.0382 18.7604C15.8438 19.184 16.8056 18.5035 16.6493 17.5903L15.7813 12.5382L19.4514 8.96179C20.1111 8.31943 19.7465 7.1979 18.8368 7.06596ZM13.9931 11.9548L14.816 16.7604L10.5 14.493L6.18403 16.7604L7.00695 11.9548L3.51389 8.55207L8.34028 7.85068L10.5 3.47568L12.6597 7.85068L17.4861 8.55207L13.9931 11.9548Z" fill="black"/>
</svg>
